<mxfile host="app.diagrams.net" modified="2023-10-05T14:58:43.818Z" agent="Mozilla/5.0 (Windows NT 10.0; Win64; x64) AppleWebKit/537.36 (KHTML, like Gecko) Chrome/110.0.0.0 Safari/537.36 Edg/110.0.1587.50" version="22.0.2" etag="E_6Vq8g3LQ7k9He6DFwS" type="github">
  <diagram name="PÃ¡gina-1" id="N2iOTIRXVoQkePXqkyfX">
    <mxGraphModel>
      <root>
        <mxCell id="0" />
        <mxCell id="1" parent="0" />
      </root>
    </mxGraphModel>
  </diagram>
</mxfile>
